<svg width="98" height="33" viewBox="0 0 98 33" fill="none" xmlns="http://www.w3.org/2000/svg">
<rect width="98" height="33" rx="10" fill="#E0E096"/>
<g clip-path="url(#clip0_3328_465)">
<rect x="34" y="6" width="29" height="22" rx="5" fill="white"/>
<path d="M48.5119 20.958C48.3439 20.958 48.1712 20.9487 47.9939 20.93C47.8259 20.902 47.6579 20.8553 47.4899 20.79C47.2379 20.6873 46.9952 20.552 46.7619 20.384C46.5379 20.2067 46.3325 20.0107 46.1459 19.796C45.6979 19.292 45.3572 18.6993 45.1239 18.018C44.8905 17.3273 44.7739 16.6273 44.7739 15.918C44.7739 14.9473 44.9605 14.0093 45.3339 13.104C45.3992 12.9453 45.4832 12.7773 45.5859 12.6C45.6979 12.4227 45.8192 12.2547 45.9499 12.096C46.0899 11.928 46.2299 11.7787 46.3699 11.648C46.5192 11.5173 46.6685 11.4193 46.8179 11.354C47.0232 11.2607 47.2472 11.1673 47.4899 11.074C47.7885 10.9807 48.1245 10.9387 48.4979 10.948C48.8712 10.9573 49.2119 10.9993 49.5199 11.074C49.9492 11.1767 50.3179 11.3633 50.6259 11.634C50.9339 11.8953 51.1952 12.2127 51.4099 12.586C51.6245 12.95 51.7925 13.3513 51.9139 13.79C52.0352 14.2193 52.1239 14.658 52.1799 15.106C52.2172 15.4047 52.2312 15.7033 52.2219 16.002C52.2125 16.2913 52.1892 16.5853 52.1519 16.884C52.1145 17.1547 52.0679 17.4253 52.0119 17.696C51.9652 17.9667 51.8999 18.228 51.8159 18.48C51.7319 18.732 51.6245 18.9747 51.4939 19.208C51.3632 19.432 51.1999 19.642 51.0039 19.838C50.6492 20.1833 50.2619 20.454 49.8419 20.65C49.4312 20.8367 48.9879 20.9393 48.5119 20.958ZM48.4979 12.796C48.3672 12.796 48.2365 12.81 48.1059 12.838C47.9845 12.8567 47.8679 12.9033 47.7559 12.978C47.6252 13.062 47.5085 13.1647 47.4059 13.286C47.3032 13.4073 47.2145 13.5333 47.1399 13.664C46.9439 14 46.8085 14.3593 46.7339 14.742C46.6592 15.1247 46.6219 15.512 46.6219 15.904C46.6219 16.3053 46.6639 16.7207 46.7479 17.15C46.8412 17.5793 47.0045 17.9713 47.2379 18.326C47.3499 18.494 47.4805 18.6433 47.6299 18.774C47.7885 18.8953 47.9705 18.984 48.1759 19.04C48.3625 19.0867 48.5492 19.1007 48.7359 19.082C48.9319 19.0633 49.1139 19.0027 49.2819 18.9C49.5525 18.732 49.7672 18.508 49.9259 18.228C50.0845 17.948 50.2012 17.6447 50.2759 17.318C50.3599 16.9913 50.4065 16.6553 50.4159 16.31C50.4345 15.9647 50.4345 15.652 50.4159 15.372C50.3972 15.092 50.3505 14.798 50.2759 14.49C50.2012 14.182 50.0892 13.902 49.9399 13.65C49.7999 13.398 49.6085 13.1927 49.3659 13.034C49.1325 12.866 48.8432 12.7867 48.4979 12.796Z" fill="black"/>
</g>
<defs>
<clipPath id="clip0_3328_465">
<rect x="34" y="6" width="29" height="22" rx="5" fill="white"/>
</clipPath>
</defs>
</svg>
