<svg width="49" height="40" viewBox="0 0 49 40" fill="none" xmlns="http://www.w3.org/2000/svg">
<path d="M31.206 7.824C31.206 8.144 31.1633 8.45333 31.078 8.752C30.9927 9.05067 30.8433 9.31733 30.63 9.552C30.5447 9.68 30.3953 9.85067 30.182 10.064C29.9687 10.256 29.6807 10.5333 29.318 10.896C28.422 11.6427 27.5687 12.432 26.758 13.264C25.9687 14.096 25.2007 14.9707 24.454 15.888C24.198 16.1867 23.942 16.496 23.686 16.816C23.43 17.136 23.2273 17.4667 23.078 17.808C22.9287 18.1493 22.854 18.512 22.854 18.896C22.8753 19.28 23.0353 19.6747 23.334 20.08C23.8673 20.8267 24.4327 21.5413 25.03 22.224C25.6273 22.9067 26.2673 23.5787 26.95 24.24C27.3553 24.6667 27.7607 25.0827 28.166 25.488C28.5927 25.8933 28.998 26.2987 29.382 26.704C29.894 27.216 30.2033 27.76 30.31 28.336C30.4167 28.8907 30.3633 29.3813 30.15 29.808C29.9367 30.2347 29.5847 30.544 29.094 30.736C28.6247 30.928 28.0593 30.896 27.398 30.64C27.0567 30.4907 26.726 30.288 26.406 30.032C26.086 29.7973 25.7767 29.5307 25.478 29.232C25.1793 28.912 24.8913 28.592 24.614 28.272C24.3367 27.952 24.0807 27.6533 23.846 27.376C19.8353 22.96 17.83 20.0373 17.83 18.608C17.83 17.52 18.6087 15.9413 20.166 13.872C20.7633 13.1253 21.4247 12.3467 22.15 11.536C22.8753 10.704 23.686 9.88266 24.582 9.072C25.1367 8.51733 25.702 7.97333 26.278 7.44C26.8753 6.88533 27.526 6.416 28.23 6.032C28.5287 5.88267 28.8487 5.81867 29.19 5.84C29.5527 5.84 29.8833 5.92533 30.182 6.096C30.4807 6.24533 30.726 6.46933 30.918 6.768C31.11 7.06667 31.206 7.41867 31.206 7.824Z" fill="black"/>
</svg>
