<svg width="278" height="18" viewBox="0 0 278 18" fill="none" xmlns="http://www.w3.org/2000/svg">
<path d="M0.339746 9L9 17.6603L17.6603 9L9 0.339746L0.339746 9ZM277.741 9L269.081 0.339746L260.421 9L269.081 17.6603L277.741 9ZM14.0016 10.5C14.83 10.5 15.5016 9.82843 15.5016 9C15.5016 8.17157 14.83 7.5 14.0016 7.5V10.5ZM24.0047 7.5C23.1763 7.5 22.5047 8.17157 22.5047 9C22.5047 9.82843 23.1763 10.5 24.0047 10.5V7.5ZM34.0078 10.5C34.8362 10.5 35.5078 9.82843 35.5078 9C35.5078 8.17157 34.8362 7.5 34.0078 7.5V10.5ZM44.0109 7.5C43.1825 7.5 42.5109 8.17157 42.5109 9C42.5109 9.82843 43.1825 10.5 44.0109 10.5V7.5ZM54.0141 10.5C54.8425 10.5 55.5141 9.82843 55.5141 9C55.5141 8.17157 54.8425 7.5 54.0141 7.5V10.5ZM64.0172 7.5C63.1888 7.5 62.5172 8.17157 62.5172 9C62.5172 9.82843 63.1888 10.5 64.0172 10.5V7.5ZM74.0203 10.5C74.8487 10.5 75.5203 9.82843 75.5203 9C75.5203 8.17157 74.8487 7.5 74.0203 7.5V10.5ZM84.0234 7.5C83.195 7.5 82.5234 8.17157 82.5234 9C82.5234 9.82843 83.195 10.5 84.0234 10.5V7.5ZM94.0266 10.5C94.855 10.5 95.5266 9.82843 95.5266 9C95.5266 8.17157 94.855 7.5 94.0266 7.5V10.5ZM104.03 7.5C103.201 7.5 102.53 8.17157 102.53 9C102.53 9.82843 103.201 10.5 104.03 10.5V7.5ZM114.033 10.5C114.861 10.5 115.533 9.82843 115.533 9C115.533 8.17157 114.861 7.5 114.033 7.5V10.5ZM124.036 7.5C123.208 7.5 122.536 8.17157 122.536 9C122.536 9.82843 123.208 10.5 124.036 10.5V7.5ZM134.039 10.5C134.868 10.5 135.539 9.82843 135.539 9C135.539 8.17157 134.868 7.5 134.039 7.5V10.5ZM144.042 7.5C143.214 7.5 142.542 8.17157 142.542 9C142.542 9.82843 143.214 10.5 144.042 10.5V7.5ZM154.045 10.5C154.874 10.5 155.545 9.82843 155.545 9C155.545 8.17157 154.874 7.5 154.045 7.5V10.5ZM164.048 7.5C163.22 7.5 162.548 8.17157 162.548 9C162.548 9.82843 163.22 10.5 164.048 10.5V7.5ZM174.052 10.5C174.88 10.5 175.552 9.82843 175.552 9C175.552 8.17157 174.88 7.5 174.052 7.5V10.5ZM184.055 7.5C183.226 7.5 182.555 8.17157 182.555 9C182.555 9.82843 183.226 10.5 184.055 10.5V7.5ZM194.058 10.5C194.886 10.5 195.558 9.82843 195.558 9C195.558 8.17157 194.886 7.5 194.058 7.5V10.5ZM204.061 7.5C203.233 7.5 202.561 8.17157 202.561 9C202.561 9.82843 203.233 10.5 204.061 10.5V7.5ZM214.064 10.5C214.893 10.5 215.564 9.82843 215.564 9C215.564 8.17157 214.893 7.5 214.064 7.5V10.5ZM224.067 7.5C223.239 7.5 222.567 8.17157 222.567 9C222.567 9.82843 223.239 10.5 224.067 10.5V7.5ZM234.07 10.5C234.899 10.5 235.57 9.82843 235.57 9C235.57 8.17157 234.899 7.5 234.07 7.5V10.5ZM244.073 7.5C243.245 7.5 242.573 8.17157 242.573 9C242.573 9.82843 243.245 10.5 244.073 10.5V7.5ZM254.077 10.5C254.905 10.5 255.577 9.82843 255.577 9C255.577 8.17157 254.905 7.5 254.077 7.5V10.5ZM264.08 7.5C263.251 7.5 262.58 8.17157 262.58 9C262.58 9.82843 263.251 10.5 264.08 10.5V7.5ZM9 10.5H14.0016V7.5H9V10.5ZM24.0047 10.5H34.0078V7.5H24.0047V10.5ZM44.0109 10.5H54.0141V7.5H44.0109V10.5ZM64.0172 10.5H74.0203V7.5H64.0172V10.5ZM84.0234 10.5H94.0266V7.5H84.0234V10.5ZM104.03 10.5H114.033V7.5H104.03V10.5ZM124.036 10.5H134.039V7.5H124.036V10.5ZM144.042 10.5H154.045V7.5H144.042V10.5ZM164.048 10.5H174.052V7.5H164.048V10.5ZM184.055 10.5H194.058V7.5H184.055V10.5ZM204.061 10.5H214.064V7.5H204.061V10.5ZM224.067 10.5H234.07V7.5H224.067V10.5ZM244.073 10.5H254.077V7.5H244.073V10.5ZM264.08 10.5H269.081V7.5H264.08V10.5Z" fill="#7F84C5"/>
</svg>
